<svg width="32" height="32" viewBox="0 0 32 32" fill="none" xmlns="http://www.w3.org/2000/svg">
<mask id="mask0_6877_1535" style="mask-type:alpha" maskUnits="userSpaceOnUse" x="0" y="0" width="32" height="32">
<rect width="32" height="32" fill="#D9D9D9"/>
</mask>
<g mask="url(#mask0_6877_1535)">
<path d="M16.0002 17.111C14.9631 17.111 14.0742 16.7406 13.3335 16C12.5928 15.2593 12.2225 14.3704 12.2225 13.3333C12.2225 12.2962 12.5928 11.4073 13.3335 10.6666C14.0742 9.92596 14.9631 9.55563 16.0002 9.55563C17.0373 9.55563 17.9262 9.92596 18.6668 10.6666C19.4075 11.4073 19.7778 12.2962 19.7778 13.3333C19.7778 14.3704 19.4075 15.2593 18.6668 16C17.9262 16.7406 17.0373 17.111 16.0002 17.111ZM8.08916 30.6666V20.4776C7.14094 19.4703 6.44461 18.3518 6.00016 17.1223C5.55572 15.8925 5.3335 14.6295 5.3335 13.3333C5.3335 10.326 6.35939 7.79629 8.41116 5.74429C10.4632 3.69252 12.9928 2.66663 16.0002 2.66663C19.0075 2.66663 21.5372 3.69252 23.5892 5.74429C25.6409 7.79629 26.6668 10.326 26.6668 13.3333C26.6668 14.6295 26.4446 15.8925 26.0002 17.1223C25.5557 18.3518 24.8594 19.4703 23.9112 20.4776V30.6666L16.0002 28.0223L8.08916 30.6666ZM16.0002 21.7776C18.3557 21.7776 20.3521 20.9592 21.9892 19.3223C23.6261 17.6852 24.4445 15.6888 24.4445 13.3333C24.4445 10.9777 23.6261 8.9814 21.9892 7.34429C20.3521 5.7074 18.3557 4.88896 16.0002 4.88896C13.6446 4.88896 11.6483 5.7074 10.0112 7.34429C8.37427 8.9814 7.55583 10.9777 7.55583 13.3333C7.55583 15.6888 8.37427 17.6852 10.0112 19.3223C11.6483 20.9592 13.6446 21.7776 16.0002 21.7776Z" fill="white"/>
</g>
</svg>
