<svg width="32" height="32" viewBox="0 0 32 32" fill="none" xmlns="http://www.w3.org/2000/svg">
<mask id="mask0_6877_1523" style="mask-type:alpha" maskUnits="userSpaceOnUse" x="0" y="0" width="32" height="32">
<rect width="32" height="32" fill="#D9D9D9"/>
</mask>
<g mask="url(#mask0_6877_1523)">
<path d="M12.6665 20.6667L21.9998 14.6667L12.6665 8.66667V20.6667ZM10.6665 28V25.3333H5.33317C4.59984 25.3333 3.97206 25.0722 3.44984 24.55C2.92762 24.0278 2.6665 23.4 2.6665 22.6667V6.66667C2.6665 5.93333 2.92762 5.30556 3.44984 4.78333C3.97206 4.26111 4.59984 4 5.33317 4H26.6665C27.3998 4 28.0276 4.26111 28.5498 4.78333C29.0721 5.30556 29.3332 5.93333 29.3332 6.66667V22.6667C29.3332 23.4 29.0721 24.0278 28.5498 24.55C28.0276 25.0722 27.3998 25.3333 26.6665 25.3333H21.3332V28H10.6665Z" fill="white"/>
</g>
</svg>
