<svg width="24" height="24" viewBox="0 0 24 24" fill="none" xmlns="http://www.w3.org/2000/svg">
<mask id="mask0_7210_1456" style="mask-type:alpha" maskUnits="userSpaceOnUse" x="0" y="0" width="24" height="24">
<rect width="24" height="24" fill="#D9D9D9"/>
</mask>
<g mask="url(#mask0_7210_1456)">
<path d="M12.5998 12.0002L8.6998 8.10017C8.51647 7.91684 8.4248 7.6835 8.4248 7.40017C8.4248 7.11684 8.51647 6.8835 8.6998 6.70017C8.88314 6.51684 9.11647 6.42517 9.3998 6.42517C9.68314 6.42517 9.91647 6.51684 10.0998 6.70017L14.6998 11.3002C14.7998 11.4002 14.8706 11.5085 14.9123 11.6252C14.954 11.7418 14.9748 11.8668 14.9748 12.0002C14.9748 12.1335 14.954 12.2585 14.9123 12.3752C14.8706 12.4918 14.7998 12.6002 14.6998 12.7002L10.0998 17.3002C9.91647 17.4835 9.68314 17.5752 9.3998 17.5752C9.11647 17.5752 8.88314 17.4835 8.6998 17.3002C8.51647 17.1168 8.4248 16.8835 8.4248 16.6002C8.4248 16.3168 8.51647 16.0835 8.6998 15.9002L12.5998 12.0002Z" fill="#E7EFFE"/>
</g>
</svg>
