<svg width="16" height="16" viewBox="0 0 16 16" fill="none" xmlns="http://www.w3.org/2000/svg">
<mask id="mask0_7750_4838" style="mask-type:alpha" maskUnits="userSpaceOnUse" x="0" y="0" width="16" height="16">
<rect width="16" height="16" fill="#D9D9D9"/>
</mask>
<g mask="url(#mask0_7750_4838)">
<path d="M6.33334 10.3333L11 7.33333L6.33334 4.33333V10.3333ZM5.33334 14V12.6667H2.66668C2.30001 12.6667 1.98612 12.5361 1.72501 12.275C1.4639 12.0139 1.33334 11.7 1.33334 11.3333V3.33333C1.33334 2.96667 1.4639 2.65278 1.72501 2.39167C1.98612 2.13056 2.30001 2 2.66668 2H13.3333C13.7 2 14.0139 2.13056 14.275 2.39167C14.5361 2.65278 14.6667 2.96667 14.6667 3.33333V11.3333C14.6667 11.7 14.5361 12.0139 14.275 12.275C14.0139 12.5361 13.7 12.6667 13.3333 12.6667H10.6667V14H5.33334Z" fill="#3D248F"/>
</g>
</svg>
