<svg width="40" height="41" viewBox="0 0 40 41" fill="none" xmlns="http://www.w3.org/2000/svg">
<mask id="mask0_8557_5126" style="mask-type:alpha" maskUnits="userSpaceOnUse" x="0" y="0" width="40" height="41">
<rect y="0.836182" width="40" height="40" fill="#D9D9D9"/>
</mask>
<g mask="url(#mask0_8557_5126)">
<path d="M20 27.5029C18.0833 27.5029 16.2917 27.7946 14.625 28.3779C12.9583 28.9612 11.4167 29.7807 10 30.8362V34.1696H30V30.8362C28.5833 29.7807 27.0417 28.9612 25.375 28.3779C23.7083 27.7946 21.9167 27.5029 20 27.5029ZM10 37.5029C9.08333 37.5029 8.29861 37.1765 7.64583 36.5237C6.99306 35.8709 6.66667 35.0862 6.66667 34.1696V7.50289C6.66667 6.58622 6.99306 5.8015 7.64583 5.14872C8.29861 4.49594 9.08333 4.16956 10 4.16956H30C30.9167 4.16956 31.7014 4.49594 32.3542 5.14872C33.0069 5.8015 33.3333 6.58622 33.3333 7.50289V34.1696C33.3333 35.0862 33.0069 35.8709 32.3542 36.5237C31.7014 37.1765 30.9167 37.5029 30 37.5029H10ZM20 24.1696C21.6111 24.1696 22.9861 23.6001 24.125 22.4612C25.2639 21.3223 25.8333 19.9473 25.8333 18.3362C25.8333 16.7251 25.2639 15.3501 24.125 14.2112C22.9861 13.0723 21.6111 12.5029 20 12.5029C18.3889 12.5029 17.0139 13.0723 15.875 14.2112C14.7361 15.3501 14.1667 16.7251 14.1667 18.3362C14.1667 19.9473 14.7361 21.3223 15.875 22.4612C17.0139 23.6001 18.3889 24.1696 20 24.1696Z" fill="#ECE9F4"/>
</g>
</svg>
