<svg width="40" height="41" viewBox="0 0 40 41" fill="none" xmlns="http://www.w3.org/2000/svg">
<mask id="mask0_8557_5120" style="mask-type:alpha" maskUnits="userSpaceOnUse" x="0" y="0" width="40" height="41">
<rect y="0.836182" width="40" height="40" fill="#D9D9D9"/>
</mask>
<g mask="url(#mask0_8557_5120)">
<path d="M18.25 22.0028L15.8334 19.6278C15.5278 19.3222 15.1459 19.1695 14.6875 19.1695C14.2292 19.1695 13.8334 19.3361 13.5 19.6695C13.1945 19.975 13.0417 20.3639 13.0417 20.8361C13.0417 21.3084 13.1945 21.6972 13.5 22.0028L17.0834 25.5861C17.4167 25.9195 17.8056 26.0861 18.25 26.0861C18.6945 26.0861 19.0834 25.9195 19.4167 25.5861L26.5 18.5028C26.8334 18.1695 26.9931 17.7806 26.9792 17.3361C26.9653 16.8917 26.8056 16.5028 26.5 16.1695C26.1667 15.8361 25.7709 15.6625 25.3125 15.6486C24.8542 15.6347 24.4584 15.7945 24.125 16.1278L18.25 22.0028ZM13.5834 37.0861L11.1667 33.0028L6.58335 32.0028C6.16669 31.9195 5.83335 31.7042 5.58335 31.357C5.33335 31.0097 5.23613 30.6278 5.29169 30.2111L5.75002 25.5028L2.62502 21.9195C2.34724 21.6139 2.20835 21.2528 2.20835 20.8361C2.20835 20.4195 2.34724 20.0584 2.62502 19.7528L5.75002 16.1695L5.29169 11.4611C5.23613 11.0445 5.33335 10.6625 5.58335 10.3153C5.83335 9.96808 6.16669 9.7528 6.58335 9.66947L11.1667 8.66947L13.5834 4.58614C13.8056 4.22502 14.1111 3.98197 14.5 3.85697C14.8889 3.73197 15.2778 3.7528 15.6667 3.91947L20 5.7528L24.3334 3.91947C24.7222 3.7528 25.1111 3.73197 25.5 3.85697C25.8889 3.98197 26.1945 4.22502 26.4167 4.58614L28.8334 8.66947L33.4167 9.66947C33.8334 9.7528 34.1667 9.96808 34.4167 10.3153C34.6667 10.6625 34.7639 11.0445 34.7084 11.4611L34.25 16.1695L37.375 19.7528C37.6528 20.0584 37.7917 20.4195 37.7917 20.8361C37.7917 21.2528 37.6528 21.6139 37.375 21.9195L34.25 25.5028L34.7084 30.2111C34.7639 30.6278 34.6667 31.0097 34.4167 31.357C34.1667 31.7042 33.8334 31.9195 33.4167 32.0028L28.8334 33.0028L26.4167 37.0861C26.1945 37.4472 25.8889 37.6903 25.5 37.8153C25.1111 37.9403 24.7222 37.9195 24.3334 37.7528L20 35.9195L15.6667 37.7528C15.2778 37.9195 14.8889 37.9403 14.5 37.8153C14.1111 37.6903 13.8056 37.4472 13.5834 37.0861Z" fill="#ECE9F4"/>
</g>
</svg>
