<svg width="40" height="40" viewBox="0 0 40 40" fill="none" xmlns="http://www.w3.org/2000/svg">
<mask id="mask0_8564_11200" style="mask-type:alpha" maskUnits="userSpaceOnUse" x="0" y="0" width="40" height="40">
<rect width="40" height="40" fill="#D9D9D9"/>
</mask>
<g mask="url(#mask0_8564_11200)">
<path d="M1.66699 28.6667C1.66699 27.7223 1.91005 26.8542 2.39616 26.0626C2.88227 25.2709 3.5281 24.6667 4.33366 24.2501C6.05588 23.389 7.80588 22.7431 9.58366 22.3126C11.3614 21.882 13.167 21.6667 15.0003 21.6667C16.8337 21.6667 18.6392 21.882 20.417 22.3126C22.1948 22.7431 23.9448 23.389 25.667 24.2501C26.4725 24.6667 27.1184 25.2709 27.6045 26.0626C28.0906 26.8542 28.3337 27.7223 28.3337 28.6667V30.0001C28.3337 30.9167 28.0073 31.7015 27.3545 32.3542C26.7017 33.007 25.917 33.3334 25.0003 33.3334H5.00033C4.08366 33.3334 3.29894 33.007 2.64616 32.3542C1.99338 31.7015 1.66699 30.9167 1.66699 30.0001V28.6667ZM30.7503 33.3334C31.0559 32.8334 31.2851 32.2987 31.4378 31.7292C31.5906 31.1598 31.667 30.5834 31.667 30.0001V28.3334C31.667 27.1112 31.3267 25.9376 30.6462 24.8126C29.9656 23.6876 29.0003 22.7223 27.7503 21.9167C29.167 22.0834 30.5003 22.3681 31.7503 22.7709C33.0003 23.1737 34.167 23.6667 35.2503 24.2501C36.2503 24.8056 37.0142 25.4237 37.542 26.1042C38.0698 26.7848 38.3337 27.5279 38.3337 28.3334V30.0001C38.3337 30.9167 38.0073 31.7015 37.3545 32.3542C36.7017 33.007 35.917 33.3334 35.0003 33.3334H30.7503ZM15.0003 20.0001C13.167 20.0001 11.5975 19.3473 10.292 18.0417C8.98644 16.7362 8.33366 15.1667 8.33366 13.3334C8.33366 11.5001 8.98644 9.93064 10.292 8.62508C11.5975 7.31953 13.167 6.66675 15.0003 6.66675C16.8337 6.66675 18.4031 7.31953 19.7087 8.62508C21.0142 9.93064 21.667 11.5001 21.667 13.3334C21.667 15.1667 21.0142 16.7362 19.7087 18.0417C18.4031 19.3473 16.8337 20.0001 15.0003 20.0001ZM31.667 13.3334C31.667 15.1667 31.0142 16.7362 29.7087 18.0417C28.4031 19.3473 26.8337 20.0001 25.0003 20.0001C24.6948 20.0001 24.3059 19.9654 23.8337 19.8959C23.3614 19.8265 22.9725 19.7501 22.667 19.6667C23.417 18.7779 23.9934 17.7917 24.3962 16.7084C24.7989 15.6251 25.0003 14.5001 25.0003 13.3334C25.0003 12.1667 24.7989 11.0417 24.3962 9.95841C23.9934 8.87508 23.417 7.88897 22.667 7.00008C23.0559 6.86119 23.4448 6.77091 23.8337 6.72925C24.2225 6.68758 24.6114 6.66675 25.0003 6.66675C26.8337 6.66675 28.4031 7.31953 29.7087 8.62508C31.0142 9.93064 31.667 11.5001 31.667 13.3334Z" fill="#0B62F6"/>
</g>
</svg>
