<svg width="41" height="41" viewBox="0 0 41 41" fill="none" xmlns="http://www.w3.org/2000/svg">
<mask id="mask0_8557_5114" style="mask-type:alpha" maskUnits="userSpaceOnUse" x="0" y="0" width="41" height="41">
<rect y="0.845093" width="40" height="40" transform="rotate(-1.21065 0 0.845093)" fill="#D9D9D9"/>
</mask>
<g mask="url(#mask0_8557_5114)">
<path d="M35.556 26.7658L35.3483 16.9347L22.0887 24.5082C21.5946 24.7965 21.0699 24.9465 20.5145 24.9582C19.9591 24.97 19.4285 24.8423 18.9227 24.5751L4.68053 17.2077C4.37152 17.0475 4.15189 16.8438 4.02163 16.5965C3.89138 16.3492 3.82302 16.0728 3.81657 15.7673C3.81011 15.4618 3.86673 15.1828 3.98642 14.9302C4.10611 14.6776 4.31694 14.4648 4.6189 14.2917L18.5371 6.32919C18.7841 6.18505 19.0388 6.07548 19.3012 6.00048C19.5635 5.92547 19.8336 5.88504 20.1113 5.87917C20.389 5.8733 20.6605 5.90229 20.9258 5.96614C21.1911 6.03 21.4502 6.12871 21.7031 6.26229L37.7576 14.5916C38.0383 14.7246 38.2578 14.9214 38.4161 15.182C38.5744 15.4426 38.6568 15.7256 38.6633 16.0311L38.8886 26.6954C38.8986 27.1675 38.7473 27.5667 38.4347 27.8928C38.122 28.2189 37.7297 28.3869 37.2575 28.3969C36.7854 28.4069 36.3863 28.2556 36.0602 27.943C35.7341 27.6303 35.566 27.238 35.556 26.7658ZM19.134 34.5729L10.7074 30.25C10.1455 29.9562 9.70628 29.5487 9.38964 29.0275C9.07301 28.5063 8.90823 27.9402 8.89532 27.3293L8.76151 20.9973L18.9579 26.2414C19.4637 26.5086 19.9943 26.6363 20.5497 26.6245C21.1051 26.6128 21.6299 26.4628 22.1239 26.1745L32.0896 20.5044L32.2234 26.8363C32.2364 27.4472 32.0956 28.0198 31.8013 28.5539C31.507 29.088 31.0853 29.5137 30.5363 29.8309L22.2999 34.506C22.0529 34.6501 21.7982 34.7597 21.5359 34.8347C21.2735 34.9097 21.0035 34.9501 20.7258 34.956C20.4481 34.9619 20.1765 34.9329 19.9112 34.869C19.646 34.8052 19.3869 34.7065 19.134 34.5729Z" fill="#ECE9F4"/>
</g>
</svg>
