<svg width="32" height="32" viewBox="0 0 32 32" fill="none" xmlns="http://www.w3.org/2000/svg">
<mask id="mask0_8557_5136" style="mask-type:alpha" maskUnits="userSpaceOnUse" x="0" y="0" width="32" height="32">
<rect width="32" height="32" fill="#D9D9D9"/>
</mask>
<g mask="url(#mask0_8557_5136)">
<path d="M14.6 16.9333L12.6667 15.0333C12.4222 14.7889 12.1167 14.6667 11.75 14.6667C11.3833 14.6667 11.0667 14.8 10.8 15.0667C10.5556 15.3111 10.4333 15.6222 10.4333 16C10.4333 16.3778 10.5556 16.6889 10.8 16.9333L13.6667 19.8C13.9333 20.0667 14.2444 20.2 14.6 20.2C14.9556 20.2 15.2667 20.0667 15.5333 19.8L21.2 14.1333C21.4667 13.8667 21.5944 13.5556 21.5833 13.2C21.5722 12.8445 21.4444 12.5333 21.2 12.2667C20.9333 12 20.6167 11.8611 20.25 11.85C19.8833 11.8389 19.5667 11.9667 19.3 12.2333L14.6 16.9333ZM10.8667 29L8.93333 25.7333L5.26666 24.9333C4.93333 24.8667 4.66666 24.6945 4.46666 24.4167C4.26666 24.1389 4.18888 23.8333 4.23333 23.5L4.6 19.7333L2.1 16.8667C1.87777 16.6222 1.76666 16.3333 1.76666 16C1.76666 15.6667 1.87777 15.3778 2.1 15.1333L4.6 12.2667L4.23333 8.50001C4.18888 8.16667 4.26666 7.86112 4.46666 7.58334C4.66666 7.30556 4.93333 7.13334 5.26666 7.06667L8.93333 6.26667L10.8667 3.00001C11.0444 2.71112 11.2889 2.51667 11.6 2.41667C11.9111 2.31667 12.2222 2.33334 12.5333 2.46667L16 3.93334L19.4667 2.46667C19.7778 2.33334 20.0889 2.31667 20.4 2.41667C20.7111 2.51667 20.9556 2.71112 21.1333 3.00001L23.0667 6.26667L26.7333 7.06667C27.0667 7.13334 27.3333 7.30556 27.5333 7.58334C27.7333 7.86112 27.8111 8.16667 27.7667 8.50001L27.4 12.2667L29.9 15.1333C30.1222 15.3778 30.2333 15.6667 30.2333 16C30.2333 16.3333 30.1222 16.6222 29.9 16.8667L27.4 19.7333L27.7667 23.5C27.8111 23.8333 27.7333 24.1389 27.5333 24.4167C27.3333 24.6945 27.0667 24.8667 26.7333 24.9333L23.0667 25.7333L21.1333 29C20.9556 29.2889 20.7111 29.4833 20.4 29.5833C20.0889 29.6833 19.7778 29.6667 19.4667 29.5333L16 28.0667L12.5333 29.5333C12.2222 29.6667 11.9111 29.6833 11.6 29.5833C11.2889 29.4833 11.0444 29.2889 10.8667 29Z" fill="#ECE9F4"/>
</g>
</svg>
