<svg width="33" height="32" viewBox="0 0 33 32" fill="none" xmlns="http://www.w3.org/2000/svg">
<mask id="mask0_8557_5144" style="mask-type:alpha" maskUnits="userSpaceOnUse" x="0" y="0" width="33" height="32">
<rect x="0.5" width="32" height="32" fill="#D9D9D9"/>
</mask>
<g mask="url(#mask0_8557_5144)">
<path d="M7.16667 29.3333C6.43333 29.3333 5.80556 29.0722 5.28333 28.55C4.76111 28.0278 4.5 27.4 4.5 26.6667V7.99999C4.5 7.26666 4.76111 6.63888 5.28333 6.11666C5.80556 5.59443 6.43333 5.33332 7.16667 5.33332H8.5V3.99999C8.5 3.62221 8.62778 3.30555 8.88333 3.04999C9.13889 2.79443 9.45556 2.66666 9.83333 2.66666C10.2111 2.66666 10.5278 2.79443 10.7833 3.04999C11.0389 3.30555 11.1667 3.62221 11.1667 3.99999V5.33332H21.8333V3.99999C21.8333 3.62221 21.9611 3.30555 22.2167 3.04999C22.4722 2.79443 22.7889 2.66666 23.1667 2.66666C23.5444 2.66666 23.8611 2.79443 24.1167 3.04999C24.3722 3.30555 24.5 3.62221 24.5 3.99999V5.33332H25.8333C26.5667 5.33332 27.1944 5.59443 27.7167 6.11666C28.2389 6.63888 28.5 7.26666 28.5 7.99999V26.6667C28.5 27.4 28.2389 28.0278 27.7167 28.55C27.1944 29.0722 26.5667 29.3333 25.8333 29.3333H7.16667ZM7.16667 26.6667H25.8333V13.3333H7.16667V26.6667ZM16.5 18.6667C16.1222 18.6667 15.8056 18.5389 15.55 18.2833C15.2944 18.0278 15.1667 17.7111 15.1667 17.3333C15.1667 16.9555 15.2944 16.6389 15.55 16.3833C15.8056 16.1278 16.1222 16 16.5 16C16.8778 16 17.1944 16.1278 17.45 16.3833C17.7056 16.6389 17.8333 16.9555 17.8333 17.3333C17.8333 17.7111 17.7056 18.0278 17.45 18.2833C17.1944 18.5389 16.8778 18.6667 16.5 18.6667ZM11.1667 18.6667C10.7889 18.6667 10.4722 18.5389 10.2167 18.2833C9.96111 18.0278 9.83333 17.7111 9.83333 17.3333C9.83333 16.9555 9.96111 16.6389 10.2167 16.3833C10.4722 16.1278 10.7889 16 11.1667 16C11.5444 16 11.8611 16.1278 12.1167 16.3833C12.3722 16.6389 12.5 16.9555 12.5 17.3333C12.5 17.7111 12.3722 18.0278 12.1167 18.2833C11.8611 18.5389 11.5444 18.6667 11.1667 18.6667ZM21.8333 18.6667C21.4556 18.6667 21.1389 18.5389 20.8833 18.2833C20.6278 18.0278 20.5 17.7111 20.5 17.3333C20.5 16.9555 20.6278 16.6389 20.8833 16.3833C21.1389 16.1278 21.4556 16 21.8333 16C22.2111 16 22.5278 16.1278 22.7833 16.3833C23.0389 16.6389 23.1667 16.9555 23.1667 17.3333C23.1667 17.7111 23.0389 18.0278 22.7833 18.2833C22.5278 18.5389 22.2111 18.6667 21.8333 18.6667ZM16.5 24C16.1222 24 15.8056 23.8722 15.55 23.6167C15.2944 23.3611 15.1667 23.0444 15.1667 22.6667C15.1667 22.2889 15.2944 21.9722 15.55 21.7167C15.8056 21.4611 16.1222 21.3333 16.5 21.3333C16.8778 21.3333 17.1944 21.4611 17.45 21.7167C17.7056 21.9722 17.8333 22.2889 17.8333 22.6667C17.8333 23.0444 17.7056 23.3611 17.45 23.6167C17.1944 23.8722 16.8778 24 16.5 24ZM11.1667 24C10.7889 24 10.4722 23.8722 10.2167 23.6167C9.96111 23.3611 9.83333 23.0444 9.83333 22.6667C9.83333 22.2889 9.96111 21.9722 10.2167 21.7167C10.4722 21.4611 10.7889 21.3333 11.1667 21.3333C11.5444 21.3333 11.8611 21.4611 12.1167 21.7167C12.3722 21.9722 12.5 22.2889 12.5 22.6667C12.5 23.0444 12.3722 23.3611 12.1167 23.6167C11.8611 23.8722 11.5444 24 11.1667 24ZM21.8333 24C21.4556 24 21.1389 23.8722 20.8833 23.6167C20.6278 23.3611 20.5 23.0444 20.5 22.6667C20.5 22.2889 20.6278 21.9722 20.8833 21.7167C21.1389 21.4611 21.4556 21.3333 21.8333 21.3333C22.2111 21.3333 22.5278 21.4611 22.7833 21.7167C23.0389 21.9722 23.1667 22.2889 23.1667 22.6667C23.1667 23.0444 23.0389 23.3611 22.7833 23.6167C22.5278 23.8722 22.2111 24 21.8333 24Z" fill="#ECE9F4"/>
</g>
</svg>
