<svg width="32" height="32" viewBox="0 0 32 32" fill="none" xmlns="http://www.w3.org/2000/svg">
<mask id="mask0_8557_5082" style="mask-type:alpha" maskUnits="userSpaceOnUse" x="0" y="0" width="32" height="32">
<rect width="32" height="32" fill="#D9D9D9"/>
</mask>
<g mask="url(#mask0_8557_5082)">
<path d="M13.7 21.3333L21.1334 16.5666C21.3334 16.4333 21.4334 16.2444 21.4334 16C21.4334 15.7555 21.3334 15.5666 21.1334 15.4333L13.7 10.6666C13.4778 10.5111 13.25 10.5 13.0167 10.6333C12.7834 10.7666 12.6667 10.9666 12.6667 11.2333V20.7666C12.6667 21.0333 12.7834 21.2333 13.0167 21.3666C13.25 21.5 13.4778 21.4889 13.7 21.3333ZM5.33335 26.6666C4.60002 26.6666 3.97224 26.4055 3.45002 25.8833C2.9278 25.3611 2.66669 24.7333 2.66669 24V7.99998C2.66669 7.26665 2.9278 6.63887 3.45002 6.11665C3.97224 5.59442 4.60002 5.33331 5.33335 5.33331H26.6667C27.4 5.33331 28.0278 5.59442 28.55 6.11665C29.0722 6.63887 29.3334 7.26665 29.3334 7.99998V24C29.3334 24.7333 29.0722 25.3611 28.55 25.8833C28.0278 26.4055 27.4 26.6666 26.6667 26.6666H5.33335Z" fill="#052367"/>
</g>
</svg>
