<svg width="33" height="32" viewBox="0 0 33 32" fill="none" xmlns="http://www.w3.org/2000/svg">
<mask id="mask0_8557_5098" style="mask-type:alpha" maskUnits="userSpaceOnUse" x="0" y="0" width="33" height="32">
<rect x="0.5" width="32" height="32" fill="#D9D9D9"/>
</mask>
<g mask="url(#mask0_8557_5098)">
<path d="M15.1 16.9333L13.1667 15.0333C12.9222 14.7889 12.6167 14.6666 12.25 14.6666C11.8834 14.6666 11.5667 14.8 11.3 15.0666C11.0556 15.3111 10.9334 15.6222 10.9334 16C10.9334 16.3778 11.0556 16.6889 11.3 16.9333L14.1667 19.8C14.4334 20.0666 14.7445 20.2 15.1 20.2C15.4556 20.2 15.7667 20.0666 16.0334 19.8L21.7 14.1333C21.9667 13.8666 22.0945 13.5555 22.0834 13.2C22.0723 12.8444 21.9445 12.5333 21.7 12.2666C21.4334 12 21.1167 11.8611 20.75 11.85C20.3834 11.8389 20.0667 11.9666 19.8 12.2333L15.1 16.9333ZM11.3667 29L9.43336 25.7333L5.76669 24.9333C5.43336 24.8666 5.16669 24.6944 4.96669 24.4166C4.76669 24.1389 4.68892 23.8333 4.73336 23.5L5.10003 19.7333L2.60003 16.8666C2.3778 16.6222 2.26669 16.3333 2.26669 16C2.26669 15.6666 2.3778 15.3778 2.60003 15.1333L5.10003 12.2666L4.73336 8.49998C4.68892 8.16664 4.76669 7.86109 4.96669 7.58331C5.16669 7.30553 5.43336 7.13331 5.76669 7.06664L9.43336 6.26664L11.3667 2.99998C11.5445 2.71109 11.7889 2.51664 12.1 2.41664C12.4111 2.31664 12.7222 2.33331 13.0334 2.46664L16.5 3.93331L19.9667 2.46664C20.2778 2.33331 20.5889 2.31664 20.9 2.41664C21.2111 2.51664 21.4556 2.71109 21.6334 2.99998L23.5667 6.26664L27.2334 7.06664C27.5667 7.13331 27.8334 7.30553 28.0334 7.58331C28.2334 7.86109 28.3111 8.16664 28.2667 8.49998L27.9 12.2666L30.4 15.1333C30.6222 15.3778 30.7334 15.6666 30.7334 16C30.7334 16.3333 30.6222 16.6222 30.4 16.8666L27.9 19.7333L28.2667 23.5C28.3111 23.8333 28.2334 24.1389 28.0334 24.4166C27.8334 24.6944 27.5667 24.8666 27.2334 24.9333L23.5667 25.7333L21.6334 29C21.4556 29.2889 21.2111 29.4833 20.9 29.5833C20.5889 29.6833 20.2778 29.6666 19.9667 29.5333L16.5 28.0666L13.0334 29.5333C12.7222 29.6666 12.4111 29.6833 12.1 29.5833C11.7889 29.4833 11.5445 29.2889 11.3667 29Z" fill="#052367"/>
</g>
</svg>
