<svg width="33" height="32" viewBox="0 0 33 32" fill="none" xmlns="http://www.w3.org/2000/svg">
<mask id="mask0_8557_5087" style="mask-type:alpha" maskUnits="userSpaceOnUse" x="0" y="0" width="33" height="32">
<rect x="0.5" width="32" height="32" fill="#D9D9D9"/>
</mask>
<g mask="url(#mask0_8557_5087)">
<path d="M28.5 28V6.66667H4.50001V16C4.50001 16.3778 4.37223 16.6944 4.11668 16.95C3.86112 17.2056 3.54445 17.3333 3.16668 17.3333C2.7889 17.3333 2.47223 17.2056 2.21668 16.95C1.96112 16.6944 1.83334 16.3778 1.83334 16V6.66667C1.83334 5.93333 2.09445 5.30556 2.61668 4.78333C3.1389 4.26111 3.76668 4 4.50001 4H28.5C29.2333 4 29.8611 4.26111 30.3833 4.78333C30.9056 5.30556 31.1667 5.93333 31.1667 6.66667V25.3333C31.1667 26.0667 30.9056 26.6944 30.3833 27.2167C29.8611 27.7389 29.2333 28 28.5 28ZM12.5 18.6667C11.0333 18.6667 9.77779 18.1444 8.73334 17.1C7.6889 16.0556 7.16668 14.8 7.16668 13.3333C7.16668 11.8667 7.6889 10.6111 8.73334 9.56667C9.77779 8.52222 11.0333 8 12.5 8C13.9667 8 15.2222 8.52222 16.2667 9.56667C17.3111 10.6111 17.8333 11.8667 17.8333 13.3333C17.8333 14.8 17.3111 16.0556 16.2667 17.1C15.2222 18.1444 13.9667 18.6667 12.5 18.6667ZM4.50001 29.3333C3.76668 29.3333 3.1389 29.0722 2.61668 28.55C2.09445 28.0278 1.83334 27.4 1.83334 26.6667V25.6C1.83334 24.8444 2.02779 24.15 2.41668 23.5167C2.80557 22.8833 3.32223 22.4 3.96668 22.0667C5.34445 21.3778 6.74445 20.8611 8.16668 20.5167C9.5889 20.1722 11.0333 20 12.5 20C13.9667 20 15.4111 20.1722 16.8333 20.5167C18.2556 20.8611 19.6556 21.3778 21.0333 22.0667C21.6778 22.4 22.1945 22.8833 22.5833 23.5167C22.9722 24.15 23.1667 24.8444 23.1667 25.6V26.6667C23.1667 27.4 22.9056 28.0278 22.3833 28.55C21.8611 29.0722 21.2333 29.3333 20.5 29.3333H4.50001Z" fill="#052367"/>
</g>
</svg>
