<svg width="20" height="14" viewBox="0 0 20 14" fill="none" xmlns="http://www.w3.org/2000/svg">
<path fill-rule="evenodd" clip-rule="evenodd" d="M17.792 0.414829C18.6521 0.645893 19.3325 1.32626 19.5635 2.18633C19.9872 3.75244 20 7.00019 20 7.00019C20 7.00019 20 10.2608 19.5764 11.8141C19.3453 12.6741 18.665 13.3545 17.8049 13.5856C16.2516 14.0092 10 14.0092 10 14.0092C10 14.0092 3.74839 14.0092 2.19512 13.5856C1.33504 13.3545 0.654686 12.6741 0.42362 11.8141C0 10.248 0 7.00019 0 7.00019C0 7.00019 0 3.75244 0.410783 2.19917C0.641849 1.33909 1.32221 0.658735 2.18229 0.427671C3.73556 0.00404477 9.98716 -0.00878906 9.98716 -0.00878906C9.98716 -0.00878906 16.2388 -0.00878906 17.792 0.414829ZM13.1836 7.0002L7.99743 10.004V3.99635L13.1836 7.0002Z" fill="white"/>
</svg>
