<svg width="13" height="13" viewBox="0 0 13 13" fill="none" xmlns="http://www.w3.org/2000/svg">
<path d="M2.28459 0.000899612C2.31248 0.0359837 2.33722 0.0746661 2.36871 0.106152C3.42396 1.16272 4.47967 2.21884 5.53628 3.27406C5.56597 3.30375 5.60285 3.32534 5.63659 3.35053C5.64198 3.36807 5.64738 3.38606 5.65323 3.40361C5.6123 3.42744 5.56462 3.44364 5.53223 3.47557C5.02439 3.97889 4.51881 4.48401 4.01277 4.98914C3.80046 5.20144 3.78921 5.37326 3.97408 5.61345C4.56064 6.37451 5.15754 7.13151 5.87229 7.77517C6.38327 8.23486 6.94734 8.63563 7.49386 9.05484C7.65039 9.17494 7.83571 9.1367 7.99585 8.97703C8.49874 8.47505 9.00073 7.97173 9.50137 7.46706C9.54275 7.42523 9.57289 7.3726 9.61472 7.31593C9.8882 7.59166 10.1347 7.84129 10.3825 8.08913C11.2228 8.9298 12.0635 9.77047 12.9046 10.6107C12.9339 10.6399 12.9681 10.6633 13 10.6898V10.715C12.969 10.7434 12.937 10.7704 12.9073 10.8C12.3986 11.3083 11.889 11.8157 11.382 12.3258C11.0622 12.6474 10.6794 12.8489 10.2382 12.9411C10.1271 12.9645 10.0146 12.9807 9.9026 13H9.41995C9.23328 12.969 9.04481 12.9447 8.85994 12.9051C8.00934 12.7243 7.23522 12.3577 6.50922 11.8935C4.30739 10.4847 2.53199 8.65003 1.13667 6.44603C0.682814 5.7295 0.314868 4.96935 0.116051 4.13812C0.0679216 3.93751 0.038234 3.73241 0 3.52955C0 3.34333 0 3.15712 0 2.9709C0.00584755 2.95966 0.0157432 2.94931 0.0166428 2.93762C0.0724194 2.35738 0.347254 1.89724 0.76378 1.49827C1.27342 1.01024 1.76191 0.500173 2.2594 0C2.26795 0 2.2765 0.000899612 2.28459 0.000899612ZM9.60842 8.41298C9.58098 8.44987 9.55894 8.48765 9.5297 8.51733C9.18695 8.86278 8.84689 9.21092 8.49784 9.55007C8.09481 9.94229 7.5123 10.0066 7.06924 9.68725C6.56545 9.32382 6.06121 8.95679 5.59071 8.55197C4.73696 7.8179 4.03571 6.94035 3.3502 6.052C2.95481 5.54014 2.99934 4.92796 3.4568 4.46872C3.78831 4.13587 4.12117 3.80482 4.45583 3.47512C4.48822 3.44319 4.5368 3.42789 4.55974 3.41485C3.76807 2.62321 3.00969 1.86485 2.27605 1.13124C1.87391 1.51716 1.45559 1.90534 1.05391 2.31015C0.887028 2.47838 0.804712 2.70822 0.789869 2.94346C0.774125 3.1904 0.767828 3.44364 0.804263 3.68743C0.911768 4.41295 1.21584 5.06875 1.57434 5.69981C2.28774 6.95609 3.19951 8.05899 4.21968 9.07508C5.16698 10.0188 6.18895 10.8698 7.36881 11.5139C8.02913 11.8746 8.71555 12.1679 9.47843 12.2246C10.0308 12.2655 10.5233 12.1373 10.9192 11.7158C11.2142 11.4014 11.5278 11.1037 11.8327 10.7982C11.8615 10.7695 11.8885 10.7393 11.9115 10.7155C11.145 9.94858 10.3884 9.19203 9.60887 8.41208L9.60842 8.41298Z" fill="white"/>
<path d="M7.66614 1.51717V0.780405C9.90125 0.666606 12.256 2.65965 12.2232 5.32199H11.4742C11.4491 4.27982 11.0892 3.37798 10.3529 2.64076C9.61652 1.904 8.71645 1.54056 7.66614 1.51717Z" fill="white"/>
<path d="M7.66614 3.02354V2.28498C8.44431 2.29082 9.12218 2.54811 9.69479 3.06582C10.3583 3.66585 10.688 4.42151 10.7096 5.32425H9.96782C9.81849 3.94427 9.0619 3.17692 7.66614 3.02354Z" fill="white"/>
</svg>
