<svg width="13" height="13" viewBox="0 0 13 13" fill="none" xmlns="http://www.w3.org/2000/svg">
<path d="M6.66249 12.8267C5.46619 12.7883 4.35084 12.4964 3.32332 11.8933C3.22459 11.8355 3.14765 11.8355 3.04421 11.8793C2.20288 12.2375 1.35792 12.5879 0.516235 12.945C0.368513 13.0078 0.229865 13.0376 0.100654 12.9189C-0.0336392 12.7955 -0.0133138 12.6524 0.0451217 12.4975C0.371054 11.6347 0.69009 10.7694 1.0182 9.90737C1.0603 9.79692 1.04905 9.71767 0.987712 9.61834C-0.397318 7.3703 -0.283351 4.56034 1.30675 2.47116C2.3604 1.08698 3.77919 0.283361 5.51882 0.05637C8.92369 -0.387931 11.9543 1.84792 12.7703 4.86873C13.7513 8.5006 11.4869 11.9736 7.94625 12.6725C7.5245 12.7557 7.09077 12.7765 6.66249 12.8267ZM0.8781 12.0991C0.946698 12.0754 0.986623 12.0643 1.02437 12.0485C1.66208 11.7818 2.30305 11.5221 2.93568 11.2435C3.15345 11.1478 3.32404 11.1571 3.53056 11.2833C4.84736 12.0887 6.27631 12.3627 7.79672 12.0722C10.909 11.4773 12.9046 8.45792 12.2382 5.37866C11.5769 2.32234 8.71499 0.292326 5.58415 0.690368C3.8104 0.915925 2.41303 1.79341 1.51 3.31386C0.303544 5.34423 0.395009 7.39863 1.61344 9.4082C1.73213 9.60364 1.7608 9.76787 1.67623 9.98267C1.40402 10.674 1.15068 11.3722 0.8781 12.0991Z" fill="white"/>
<path d="M8.368 10.1032C7.49365 10.0504 6.69806 9.72412 5.95836 9.25185C4.66915 8.42887 3.70079 7.33408 3.11425 5.92372C2.94693 5.52173 2.85256 5.10146 2.81083 4.66863C2.77054 4.25302 2.87144 3.87398 3.10772 3.53009C3.37667 3.13814 3.71857 2.82545 4.15774 2.63001C4.56897 2.44677 4.9243 2.56259 5.16022 2.94199C5.3613 3.26508 5.56165 3.58818 5.75982 3.91307C5.82043 4.01204 5.87705 4.11388 5.92678 4.21859C6.10281 4.58974 6.06652 4.81422 5.76744 5.10038C5.60702 5.25386 5.43062 5.39192 5.25568 5.52998C5.16966 5.59775 5.14316 5.67127 5.20341 5.75984C5.40485 6.05568 5.5896 6.36623 5.82043 6.63876C6.18121 7.06477 6.60187 7.43197 7.10311 7.69626C7.33794 7.81998 7.33831 7.81424 7.50853 7.61414C7.64573 7.45313 7.78111 7.28925 7.92992 7.139C8.15168 6.91488 8.41628 6.86754 8.70591 6.99986C8.8315 7.05724 8.95526 7.12 9.07395 7.18992C9.40315 7.38464 9.72944 7.58474 10.0565 7.78268C10.4583 8.02581 10.5835 8.37939 10.3672 8.79572C10.0067 9.48924 9.47937 9.98948 8.65764 10.1014C8.56872 10.1136 8.47689 10.1032 8.368 10.1032ZM8.47544 9.48243C8.96397 9.49247 9.67645 8.9639 9.8024 8.50274C9.81546 8.45541 9.77953 8.36397 9.73743 8.33779C9.34979 8.09645 8.9549 7.86695 8.56509 7.6292C8.44713 7.55712 8.36619 7.57721 8.28126 7.68156C8.13136 7.86623 7.9742 8.04589 7.81486 8.22304C7.63665 8.42098 7.4109 8.47441 7.16082 8.39158C7.0004 8.33851 6.83924 8.27647 6.69297 8.19327C6.13657 7.87699 5.67344 7.45026 5.25786 6.97189C4.98637 6.6592 4.73375 6.33288 4.58748 5.94093C4.4423 5.55149 4.49094 5.35821 4.80417 5.0846C4.95588 4.95228 5.11159 4.82355 5.27092 4.70019C5.37981 4.61592 5.38816 4.53236 5.31629 4.41833C5.08582 4.05149 4.85607 3.68428 4.63902 3.30991C4.5599 3.17328 4.47497 3.16504 4.35374 3.23281C4.03652 3.41032 3.76249 3.64125 3.59771 3.9622C3.50987 4.13325 3.45688 4.34016 3.45434 4.53201C3.44853 4.94081 3.55996 5.3349 3.71966 5.71107C4.29893 7.07481 5.25386 8.11438 6.53836 8.86206C7.14231 9.21348 7.78619 9.45266 8.47544 9.48243Z" fill="white"/>
</svg>
